<?xml version="1.0" encoding="UTF-8"?>
<svg xmlns="http://www.w3.org/2000/svg" xmlns:xlink="http://www.w3.org/1999/xlink" width="18px" height="18px" viewBox="0 0 18 18" version="1.1">
<g id="surface1">
<path style="fill-rule:nonzero;fill:rgb(100%,100%,100%);fill-opacity:1;stroke-width:1;stroke-linecap:butt;stroke-linejoin:miter;stroke:rgb(100%,100%,100%);stroke-opacity:1;stroke-miterlimit:4;" d="M 32 0 C 14.333333 0 0 14.333333 0 32 C 0 49.666667 14.333333 64 32 64 C 49.666667 64 64 49.666667 64 32 C 64 14.333333 49.666667 0 32 0 Z M 52.805556 20.083333 C 50.513889 22.055556 48.708333 23.833333 45.361111 23.958333 C 42.791667 24.055556 40.916667 24.069444 39 22.361111 C 36.263889 19.888889 38.138889 16.583333 38.236111 12.861111 C 38.277778 11.430556 38.513889 10.180556 38.819444 9 C 44.791667 10.763889 49.777778 14.791667 52.805556 20.083333 Z M 9.861111 41.291667 C 11.958333 39.263889 15.375 38.180556 17.819444 35.472222 C 20.305556 32.694444 20.222222 27.638889 23.944444 28.097222 C 26.986111 28.513889 26.444444 32.333333 28.847222 34.222222 C 31.680556 36.486111 35.180556 35.041667 37.444444 37.902778 C 40.416667 41.666667 39.722222 45.958333 37.444444 50.194444 C 35.763889 53.25 33.611111 54.333333 30.722222 55.930556 C 21.319444 55.444444 13.333333 49.555556 9.861111 41.291667 Z M 9.861111 41.291667 " transform="matrix(0.28125,0,0,0.28125,0,0)"/>
</g>
</svg>
