<?xml version="1.0" encoding="UTF-8"?>
<svg xmlns="http://www.w3.org/2000/svg" xmlns:xlink="http://www.w3.org/1999/xlink" width="24px" height="24px" viewBox="0 0 24 24" version="1.1">
<g id="surface1">
<path style="fill:none;stroke-width:2;stroke-linecap:round;stroke-linejoin:round;stroke:rgb(100%,100%,100%);stroke-opacity:1;stroke-miterlimit:4;" d="M 12 6 C 10.199219 3.902344 7.195312 3.253906 4.9375 5.175781 C 2.683594 7.09375 2.367188 10.304688 4.136719 12.578125 C 5.609375 14.464844 10.066406 18.449219 11.523438 19.738281 C 11.6875 19.882812 11.769531 19.953125 11.863281 19.980469 C 11.949219 20.007812 12.039062 20.007812 12.121094 19.980469 C 12.21875 19.953125 12.300781 19.882812 12.460938 19.738281 C 13.921875 18.449219 18.378906 14.464844 19.851562 12.578125 C 21.621094 10.304688 21.339844 7.074219 19.046875 5.175781 C 16.753906 3.273438 13.800781 3.902344 12 6 Z M 12 6 "/>
</g>
</svg>
