<?xml version="1.0" encoding="UTF-8"?>
<svg xmlns="http://www.w3.org/2000/svg" xmlns:xlink="http://www.w3.org/1999/xlink" width="18px" height="18px" viewBox="0 0 18 18" version="1.1">
<g id="surface1">
<path style="fill:none;stroke-width:2;stroke-linecap:round;stroke-linejoin:round;stroke:rgb(100%,100%,100%);stroke-opacity:1;stroke-miterlimit:4;" d="M 3 3 L 21 21 M 17 10 L 17 8 C 17 5.239583 14.760417 3 12 3 C 11.026042 3 10.119792 3.276042 9.354167 3.755208 M 7.083333 7.083333 C 7.03125 7.380208 7 7.6875 7 8 L 7 10.03125 M 19.5625 19.5625 C 19.270833 20.036458 18.859375 20.421875 18.364583 20.671875 C 17.71875 21 16.880208 21 15.197917 21 L 8.802083 21 C 7.119792 21 6.28125 21 5.640625 20.671875 C 5.072917 20.385417 4.614583 19.927083 4.328125 19.364583 C 4 18.71875 4 17.880208 4 16.197917 L 4 14.802083 C 4 13.119792 4 12.28125 4.328125 11.635417 C 4.614583 11.072917 5.072917 10.614583 5.640625 10.328125 C 5.994792 10.145833 6.411458 10.0625 7 10.03125 M 20 14.401042 C 20 12.984375 19.973958 12.229167 19.671875 11.635417 C 19.385417 11.072917 18.927083 10.614583 18.364583 10.328125 C 17.770833 10.026042 17.015625 10 15.598958 10 M 10 10 L 8.802083 10 C 8.052083 10 7.473958 10 7 10.03125 " transform="matrix(0.75,0,0,0.75,0,0)"/>
</g>
</svg>
