<?xml version="1.0" encoding="UTF-8"?>
<svg xmlns="http://www.w3.org/2000/svg" xmlns:xlink="http://www.w3.org/1999/xlink" width="24px" height="24px" viewBox="0 0 24 24" version="1.1">
<g id="surface1">
<path style=" stroke:none;fill-rule:nonzero;fill:rgb(100%,100%,100%);fill-opacity:1;" d="M 7.734375 20.769531 C 6.21875 21.507812 4.539062 21.84375 2.859375 21.75 C 2.574219 21.75 2.273438 21.742188 1.972656 21.730469 C 1.691406 21.722656 1.4375 21.554688 1.320312 21.300781 C 1.199219 21.046875 1.230469 20.746094 1.40625 20.523438 C 2.335938 19.410156 3.039062 18.121094 3.476562 16.738281 C 1.339844 12.894531 2.039062 8.09375 5.1875 5.019531 C 8.335938 1.949219 13.152344 1.363281 16.941406 3.59375 C 20.734375 5.824219 22.5625 10.316406 21.410156 14.5625 C 20.253906 18.804688 16.398438 21.75 12 21.75 C 10.523438 21.753906 9.0625 21.417969 7.734375 20.769531 Z M 8.058594 19.25 C 11.683594 21.222656 16.214844 20.207031 18.652344 16.875 C 21.09375 13.542969 20.691406 8.917969 17.710938 6.058594 C 14.730469 3.195312 10.097656 2.980469 6.863281 5.550781 C 3.632812 8.125 2.800781 12.6875 4.917969 16.234375 C 5.015625 16.394531 5.046875 16.585938 5.011719 16.769531 C 4.710938 18.015625 4.183594 19.191406 3.449219 20.238281 C 4.785156 20.285156 6.105469 19.957031 7.265625 19.292969 C 7.390625 19.203125 7.542969 19.15625 7.695312 19.15625 C 7.820312 19.15625 7.945312 19.1875 8.058594 19.25 Z M 8 14.75 C 7.585938 14.75 7.25 14.414062 7.25 14 C 7.25 13.585938 7.585938 13.25 8 13.25 L 15 13.25 C 15.414062 13.25 15.75 13.585938 15.75 14 C 15.75 14.414062 15.414062 14.75 15 14.75 Z M 8 10.75 C 7.585938 10.75 7.25 10.414062 7.25 10 C 7.25 9.585938 7.585938 9.25 8 9.25 L 13 9.25 C 13.414062 9.25 13.75 9.585938 13.75 10 C 13.75 10.414062 13.414062 10.75 13 10.75 Z M 8 10.75 "/>
</g>
</svg>
