<?xml version="1.0" encoding="UTF-8"?>
<svg xmlns="http://www.w3.org/2000/svg" xmlns:xlink="http://www.w3.org/1999/xlink" width="24px" height="24px" viewBox="0 0 24 24" version="1.1">
<g id="surface1">
<path style="fill:none;stroke-width:2;stroke-linecap:round;stroke-linejoin:round;stroke:rgb(100%,100%,100%);stroke-opacity:1;stroke-miterlimit:4;" d="M 20.765625 12 L 10.054688 12 M 3 8 L 5.5 8 M 4 12 L 5.5 12 M 4.5 16 L 5.5 16 M 9.960938 12.488281 L 9.070312 15.449219 C 8.734375 16.570312 8.5625 17.128906 8.707031 17.464844 C 8.832031 17.753906 9.085938 17.96875 9.394531 18.042969 C 9.746094 18.125 10.269531 17.863281 11.316406 17.339844 L 19.136719 13.429688 C 20.058594 12.96875 20.519531 12.738281 20.667969 12.429688 C 20.796875 12.15625 20.796875 11.84375 20.667969 11.570312 C 20.519531 11.261719 20.058594 11.03125 19.136719 10.570312 L 11.308594 6.652344 C 10.261719 6.132812 9.742188 5.871094 9.386719 5.953125 C 9.082031 6.027344 8.828125 6.242188 8.703125 6.53125 C 8.558594 6.867188 8.722656 7.425781 9.058594 8.542969 L 9.960938 11.570312 C 10.015625 11.742188 10.039062 11.828125 10.050781 11.914062 C 10.058594 11.992188 10.058594 12.070312 10.050781 12.144531 C 10.039062 12.234375 10.011719 12.320312 9.960938 12.488281 Z M 9.960938 12.488281 "/>
</g>
</svg>
